<svg width="0" height="0">
    <symbol width="20" height="20" viewBox="0 0 20 20" fill="none" xmlns="http://www.w3.org/2000/svg">
        <g id="telegram">
            <path d="M21.6802 2.97512C21.4735 2.79668 21.2219 2.67819 20.9527 2.63246C20.6835 2.58674 20.407 2.61553 20.153 2.71571L2.85075 9.51306C2.54921 9.63157 2.29415 9.84452 2.12373 10.1201C1.9533 10.3956 1.87666 10.7189 1.90528 11.0416C1.9339 11.3643 2.06624 11.6691 2.2825 11.9104C2.49876 12.1516 2.78731 12.3163 3.105 12.3799L7.4999 13.2591V18.7485C7.49964 19.0452 7.58746 19.3354 7.75223 19.5823C7.917 19.8291 8.15132 20.0215 8.42551 20.1351C8.69969 20.2487 9.00142 20.2783 9.29247 20.2203C9.58353 20.1623 9.85082 20.0192 10.0605 19.8092L12.4927 17.377L16.1842 20.6254C16.456 20.8668 16.8067 21.0003 17.1702 21.0008C17.3282 21.0006 17.4852 20.9757 17.6355 20.927C17.8834 20.8484 18.1064 20.7061 18.2822 20.5144C18.4579 20.3227 18.5804 20.0883 18.6372 19.8345L22.1635 4.44709C22.2249 4.181 22.2124 3.90317 22.1272 3.64372C22.042 3.38427 21.8874 3.15308 21.6802 2.97521V2.97512ZM8.07609 11.8445L3.39937 10.9092L16.4945 5.76456L8.07609 11.8445ZM8.9999 18.7477V14.3032L11.3643 16.3838L8.9999 18.7477ZM17.1751 19.4993L9.45084 12.7019L20.5738 4.66871L17.1751 19.4993Z" fill="#2A2B3A"/>
        </g>
    </symbol>
</svg>
